<svg viewBox="0 0 52 52" xml:space="preserve" xmlns="http://www.w3.org/2000/svg" enable-background="new 0 0 52 52"><path d="m15.363 13.984 17.625-.177c1.447-.015 1.45-2.265 0-2.25l-17.625.177c-1.447.015-1.45 2.265 0 2.25zM20.613 17.453l8.75-.35c1.444-.058 1.45-2.309 0-2.25l-8.75.35c-1.443.058-1.45 2.308 0 2.25zM20.238 21.828c2.901.011 7.353-1.113 8.246 2.183.702 2.592.02 6.45.029 9.129.002.622.514 1.106 1.125 1.125l4.872.151-.972-1.693c-.535 1.14-6.344 10.043-7.801 9.888-.894-.095-3.699-3.966-4.477-4.639-2.183-1.887-4.58-3.174-5.98-5.83l-.404 1.538c1.614-.585 3.124-.51 4.53.225.463.183 1.03-.124 1.27-.517 2.179-3.554 1.399-8.43 1.47-12.418.025-1.448-2.225-1.448-2.25 0-.042 2.346.777 9.578-1.577 10.168-1.776.445-2.695-.59-4.579.6-.53.335-.696.985-.404 1.539 1.501 2.847 3.953 4.259 6.333 6.286 2.184 1.86 3.69 4.589 5.949 6.238.328.24.8.172 1.135 0 1.796-.922 2.577-3.537 3.673-5.068 1.71-2.387 3.791-4.183 5.055-6.874.362-.771-.068-1.665-.971-1.693l-4.872-.151 1.125 1.125-.027-8.3c-.004-1.222.515-3.387-.31-4.476-1.507-1.991-8.13-.778-10.188-.786-1.448-.005-1.45 2.245 0 2.25z" fill="#cdd2da" class="fill-231f20"></path><path d="M41.678 10.976c6.224 4.209 6.958 11.599 6.371 18.549-.578 6.849-3.175 12.204-9.101 15.888-4.892 3.04-10.96 4.35-16.678 3.739-4.433-.474-10.847-4.378-13.694-7.9C.748 31.566 2.333 16.6 11.072 7.854c9.122-9.13 25.295-4.753 32.772 4.438.914 1.124 2.498-.477 1.591-1.59C37.21.588 19.372-3.88 9.481 6.262-.054 16.042-2.406 33.801 7.872 43.984c9.75 9.659 25.095 9.97 35.624.935 9.633-8.266 10.142-28.566-.682-35.886-1.203-.813-2.33 1.135-1.136 1.943z" fill="#cdd2da" class="fill-231f20"></path></svg>