<svg viewBox="0 0 512 512" xml:space="preserve" xmlns="http://www.w3.org/2000/svg" enable-background="new 0 0 512 512"><path d="m118.74 375.327-62.958-39.341s38.014 19.36 38.199 19.064c.755-1.209-43.85-27.4-43.85-27.4l34.898 18.5s-37.411-23.375-37.41-23.376c0 0 27.896 14.013 28.434 13.151.136-.218-33.376-19.521-32.777-20.48.01-.016 26.351 11.94 26.351 11.94.203-.325-30.854-18.272-30.401-18.997.366-.585 26.303 12.239 26.439 12.021l-28.89-18.053s23.848 10.808 23.92 10.692l-24.973-15.605c.164-.262 21.737 9.978 22.052 9.473.172-.274-24.809-15.502-24.809-15.502l22.842 9.99-23.922-14.947c.36-.576 20.421 8.131 20.421 8.131l-21.684-13.55c.289-.463 20.438 8.78 20.714 8.338.33-.527-22.325-13.558-22.148-13.84l19.236 8.131-20.576-12.856s19.09 7.284 19.271 6.995c0 0-20.052-11.678-19.669-12.29.285-.456 18.778 9.399 19.151 8.801.357-.571-19.532-12.205-19.532-12.205.211-.339 19.207 8.69 19.207 8.69s-19.343-11.699-19.169-11.979c0 0 17.343 6.881 17.529 6.585.323-.517-18.454-11.532-18.454-11.532l18.52 7.401s-19.266-11.62-19.078-11.921c.317-.508 17.894 7.108 17.962 6.999 0 0-17.45-10.539-17.286-10.801.317-.508 17.634 6.955 17.823 6.652.273-.438-17.681-10.606-17.482-10.924.307-.491 17.104 7.671 17.335 7.301l-17.725-11.076c.055-.088 17.329 7.115 17.575 6.722L26.897 233.65c.156-.25 16.721 6.556 16.721 6.556s-16.794-10.392-16.748-10.465l17.162 7.194s-16.818-10.08-16.625-10.389c0 0 16.421 7.181 16.568 6.946.063-.102-16.523-10.325-16.523-10.325s17.538 7.375 17.741 7.05c.314-.503-17.186-10.605-17.125-10.701.24-.384 17.634 6.222 17.742 6.049.304-.486-15.488-9.587-15.447-9.652l15.365 4.999s-15.444-9.469-15.363-9.6c0 0 15.404 6.199 15.503 6.04l-14.016-8.758s15.592 5.097 15.61 5.068c.22-.353-14.688-9.178-14.688-9.178.167-.268 15.854 5.902 16.026 5.626l-15.746-9.839 16.179 5.605c.28-.449-14.317-8.947-14.317-8.947.121-.194 15.828 5.667 15.828 5.667.124-.198-14.213-8.818-14.185-8.864.216-.346 15.043 5.049 15.073 5.001.252-.403-14.057-8.784-14.057-8.784.06-.096 15.843 5.411 15.843 5.411l-15.065-9.414 15.79 5.516s-14.738-8.732-14.523-9.075c0 0 16.641 7.041 16.791 6.801.03-.049-15.094-9.432-15.094-9.432s15.606 6.246 15.75 6.017c.232-.371-13.223-8.263-13.223-8.263l15.425 5.226c.148-.238-14.753-9.051-14.678-9.171 0 0 15.098 6.65 15.265 6.384.036-.058-13.378-8.36-13.378-8.36l15.07 5.676-14.069-8.792c.238-.38 14.73 5.885 14.73 5.885.239-.382-13.806-8.627-13.806-8.627.171-.273 15.786 4.985 15.786 4.985l-14.094-8.807c.189-.302 15.667 4.775 15.667 4.775l-12.761-7.974 14.957 5.206-12.406-7.752c.277-.443 15.267 5.486 15.521 5.081 0 0-13.398-8.204-13.323-8.325 0 0 14.189 3.893 14.197 3.879.145-.23-13.196-8.119-13.139-8.21l16.069 5.401-13.187-8.24c.168-.269 16.556 5.198 16.556 5.198s-13.512-7.882-13.26-8.286l13.808 4.753s-11.729-6.997-11.58-7.236l14.548 4.059s-12.963-7.682-12.775-7.983l14.788 5.137-12.78-7.986c.307-.492 15.472 6.019 15.472 6.019.173-.276-12.453-7.781-12.453-7.781.208-.332 14.896 5.965 14.899 5.961 0 0-13.044-7.523-12.762-7.975 0 0 13.723 5.946 13.942 5.596l-12.846-8.027s14.603 5.031 14.725 4.835c.219-.35-11.785-7.153-11.689-7.305.118-.188 15.653 5.47 15.653 5.47s-13.315-8.109-13.22-8.261c.185-.296 14.272 5.326 14.322 5.246l-12.757-7.972c.006-.009 16.537 5.917 16.537 5.917.114-.182-13.864-8.664-13.864-8.664s15.717 6.876 15.841 6.678L88.42 114.16c.12-.192 16.397 5.813 16.397 5.813.278-.444-13.012-7.499-12.728-7.953l16.044 6.209c.087-.139-13.12-7.624-12.862-8.037 0 0 13.492 5.753 13.708 5.408 0 0-13.468-7.811-13.196-8.246.199-.318 17.53 6.213 17.53 6.213l-14.343-8.962s15.814 6.729 15.975 6.472c0 0-13.023-7.774-12.86-8.036.246-.394 16.585 6.18 16.585 6.18.297-.476-13.827-8.414-13.725-8.577.062-.099 16.328 5.319 16.328 5.319.103-.165-13.806-8.27-13.646-8.527.133-.212 17.119 6.704 17.119 6.704.119-.191-13.928-8.703-13.928-8.703s17.563 6.996 17.862 6.515c.017-.026-13.518-8.082-13.354-8.345l16.558 5.646c.264-.422-13.098-8.185-13.098-8.185s16.135 5.525 16.189 5.438c.229-.366-13.313-7.922-13.135-8.207 0 0 17.535 6.136 17.674 5.913 0 0-14.562-8.638-14.354-8.97.281-.451 16.529 6.641 16.529 6.641.245-.393-13.25-8.28-13.25-8.28.199-.319 15.971 6.463 15.971 6.463.007-.012-13.052-7.841-12.911-8.067 0 0 15.745 6.517 15.888 6.287l-12.666-7.915 18.171 6.556c.061-.097-15.135-9.279-15.055-9.407.021-.034 17.267 8.06 17.492 7.7 0 0-14.315-8.751-14.228-8.891.241-.386 18.576 7.229 18.729 6.984.189-.303-14.305-8.879-14.278-8.922.083-.133 17.382 6.043 17.382 6.043.279-.446-13.519-8.313-13.458-8.41 0 0 16.032 7.417 16.315 6.965 0 0-13.172-8.127-13.126-8.202.024-.038 18.972 6.933 18.972 6.933l-15.806-9.876s18.292 8.487 18.474 8.196c0 0-15.133-8.742-14.812-9.256.37-.592 18.957 7.261 19.173 6.915.108-.173-15.657-9.471-15.517-9.696 0 0 20.589 8.949 20.919 8.422 0 0-16.185-9.497-15.907-9.94l19.583 7.735-15.922-9.949 19.999 8.176c.164-.262-15.162-9.475-15.162-9.475.212-.34 21.403 8.69 21.403 8.69.27-.431-16.741-10.302-16.669-10.417.295-.472 20.221 9.044 20.221 9.044.148-.237-16.992-10.618-16.992-10.618s22.041 9.51 22.153 9.331L189.9 54.465l20.967 9.677-17.825-11.138 23.331 9.914c.33-.527-17.98-10.493-17.647-11.026l20.673 9.282c.037-.059-16.566-10.352-16.566-10.352s20.579 9.715 20.681 9.553c0 0-17.179-10.265-16.968-10.603l23.058 10.468-19.026-11.889c.413-.66 24.781 10.654 24.781 10.654l-18.919-11.82 22.957 10.732c.372-.595-18.883-11.799-18.883-11.799.252-.404 23.554 11.481 23.577 11.446 0 0-20.062-11.802-19.732-12.33 0 0 23.584 12.312 24.038 11.587.133-.213-19.326-12.076-19.326-12.076.125-.199 26.317 12.152 26.455 11.932.362-.58-20.063-12.537-20.063-12.537s25.949 12.821 26.292 12.271L240.75 43.285c.323-.518 28.33 13.458 28.33 13.458s-22.33-13.92-22.315-13.944c.425-.681 30.035 14.838 30.589 13.952 0 0-24.502-14.306-24.051-15.029.319-.511 31.537 14.952 31.537 14.952s-24.794-14.642-24.411-15.253c.55-.881 30.999 15.726 30.999 15.726.253-.403-25.34-15.834-25.34-15.834.535-.856 31.056 16.249 31.056 16.249.521-.834-26.07-16.29-26.07-16.29.046-.073 34.208 17.871 34.208 17.871s-28.754-16.659-28.166-17.6c0 0 34.633 19.627 35.295 18.568l-30.263-18.91c.592-.947 40.784 22.492 41.45 21.425 0 0-33.562-19.8-33.035-20.643.874-1.398 43.771 24.084 43.925 23.839 0 0-38.5-23.196-38.112-23.815l54.3 29.725-45.191-28.238" fill="none" stroke="#231f20" stroke-width="2" stroke-linecap="round" stroke-linejoin="round" class="stroke-231f20"></path><path d="m134.19 403.225-27.216-17.007c.068-.108 55.428 31.592 56.017 30.649 0 0-81.44-47.482-79.909-49.934l93.792 55.45-103.08-64.411 118.03 69.557L65.95 348.875l140.698 82.74c.404-.646-149.181-93.219-149.181-93.219 1.79-2.864 156.466 96.927 157.62 95.08l-53.641-33.519c.597-.955 61.198 35.798 61.861 34.737 0 0-43.452-26.199-43.023-26.885.84-1.345 51.838 28.576 51.838 28.576s-39.72-23.038-38.919-24.319c.64-1.023 47.752 26.011 47.752 26.011l-36.398-22.744 42.293 22.831-33.039-20.645s42.317 22.123 42.491 21.845l-30.496-19.057c.066-.106 37.29 21.035 38.059 19.803.386-.617-30.312-18.6-30.158-18.845.34-.545 35.988 19.651 36.602 18.67l-26.534-16.581c.173-.277 32.441 17.922 33.111 16.849.246-.393-26.321-16.447-26.321-16.447.528-.845 31.516 16.367 31.516 16.367.447-.716-25.663-15.857-25.583-15.985 0 0 29.863 16.451 30.397 15.595 0 0-24.556-15.206-24.493-15.306l29.879 15.42-23.659-14.784s27.922 14.045 27.97 13.968c0 0-22.76-14.144-22.725-14.199 0 0 30.601 15.284 31.118 14.457 0 0-23.812-14.035-23.433-14.643 0 0 26.691 13.48 26.842 13.24.098-.158-21.263-13.008-21.138-13.208 0 0 28.576 13.179 28.628 13.097l-21.944-13.712c.486-.777 27.875 12.247 27.875 12.247l-20.864-13.037s24.521 11.651 24.547 11.609L306.642 423.1c.238-.381 25.092 11.671 25.092 11.671l-20.883-13.05c.074-.119 26.512 11.518 26.512 11.518l-19.876-12.42 22.586 10.561s-17.712-10.336-17.383-10.862c.063-.102 23.256 10.457 23.256 10.457s-18.675-11.624-18.654-11.656c0 0 23.303 10.536 23.723 9.864 0 0-17.979-11.14-17.936-11.207.162-.261 21.534 10.241 21.534 10.241.058-.093-18.422-11.512-18.422-11.512.417-.667 23.245 9.47 23.245 9.47l-18.832-11.768c.267-.427 21.967 10.593 22.08 10.413.245-.393-18.608-10.876-18.271-11.416 0 0 22.322 9.067 22.343 9.035 0 0-17.41-10.341-17.168-10.728l21.689 9.933s-17.984-10.637-17.715-11.068c.266-.424 20.79 9.335 21.123 8.802.294-.47-17.064-9.886-16.715-10.445.063-.101 20.996 8.65 21.232 8.271 0 0-16.782-9.863-16.502-10.312.232-.372 19.445 8.998 19.445 8.998l-17.078-10.672 20.744 8.098s-16.273-10.016-16.205-10.125c0 0 19.018 9.68 19.413 9.046.349-.559-16.867-10.54-16.867-10.54s20.498 9.12 20.595 8.965c.117-.188-17.703-10.672-17.528-10.952.299-.479 18.788 9.063 19.121 8.531.283-.453-15.164-9.476-15.164-9.476s18.382 8.263 18.752 7.67l-15.135-9.457s18.813 7.317 18.97 7.067l-16.617-10.384c.225-.359 19.638 8.037 19.707 7.926.182-.289-15.48-9.673-15.48-9.673.234-.375 18.866 6.932 18.874 6.918l-14.884-9.301s17.962 6.93 18.297 6.394c.347-.555-15.282-9.549-15.282-9.549s18.317 7.646 18.584 7.219l-15.333-9.581 18.584 6.592c.188-.3-14.208-8.21-13.908-8.69.244-.39 17.319 6.721 17.57 6.32.018-.028-15.026-9.39-15.026-9.39.03-.049 17.507 7.226 17.552 7.155l-14.862-9.287c.106-.17 17.65 7.595 17.65 7.595l-15.919-9.946c.253-.405 16.944 6.784 17.077 6.571.03-.048-14.112-8.817-14.112-8.817l17.784 7.049c.208-.333-14.854-9.282-14.854-9.282s16.35 7.275 16.557 6.943c.161-.258-15.572-9.731-15.572-9.731.03-.048 18.18 6.625 18.297 6.438.218-.349-14.332-8.911-14.313-8.943 0 0 15.842 6.721 15.91 6.61.179-.285-13.958-8.513-13.864-8.663l16.837 5.652s-14.313-8.825-14.259-8.911c0 0 16.127 6.284 16.192 6.18.028-.046-14.744-9.213-14.744-9.213l17.148 6.878c.074-.118-15.07-9.211-14.979-9.359.329-.526 17.166 7.273 17.166 7.273l-15.777-9.858 17.048 6.04-13.757-8.597c.258-.411 15.557 6.386 15.557 6.386.146-.234-15.09-9.429-15.09-9.429s16.307 7.518 16.612 7.028c0 0-14.428-8.521-14.205-8.877 0 0 16.957 7.757 17.264 7.267.207-.331-15.616-9.759-15.616-9.759.018-.027 17.353 6.519 17.628 6.077 0 0-16.095-9.678-15.924-9.95.29-.465 17.313 6.028 17.417 5.862l-15.055-9.407 17.816 6.091c.245-.393-15.714-9.423-15.536-9.708l16.667 6.457c.306-.488-14.706-9.189-14.706-9.189s15.41 6.191 15.502 6.044c.001-.001-14.604-8.423-14.288-8.928 0 0 17.511 6.498 17.599 6.356 0 0-14.951-9.077-14.832-9.268.278-.445 14.742 5.192 14.855 5.012.287-.46-15.071-9.204-14.976-9.357l16.579 6.517s-15.134-9.438-15.125-9.451c.221-.354 15.829 6.789 16.073 6.398l-14.148-8.841c.038-.062 16.63 5.51 16.736 5.339 0 0-15.118-9.338-15.069-9.416.299-.479 16.553 6.552 16.553 6.552s-15.187-8.965-14.95-9.343l15.21 6.356c.021-.035-15.483-9.571-15.437-9.646.072-.115 15.903 6.794 15.903 6.794s-14.256-8.563-14.101-8.812c.019-.03 15.945 5.476 15.945 5.476s-16.054-9.365-15.755-9.845c.267-.426 17.479 6.734 17.608 6.526.333-.532-16.109-10.066-16.109-10.066.052-.083 16.562 5.67 16.562 5.67.092-.147-15.644-9.775-15.644-9.775s15.989 6.167 16.248 5.754l-14.22-8.885c.104-.167 15.707 6.087 15.707 6.087.063-.099-15.061-9.005-14.878-9.297.067-.108 15.83 6.02 15.83 6.02.084-.136-15.85-9.904-15.85-9.904.051-.082 16.06 4.895 16.06 4.895l-15.308-9.566s16.68 7.186 16.718 7.125c.182-.29-16.848-10.446-16.812-10.504l17.197 6.296s-16.361-10.033-16.275-10.17c.135-.216 16.347 6.416 16.647 5.933.005-.008-15.624-9.546-15.526-9.702.245-.393 15.556 5.606 15.556 5.606l-16.266-10.163s17.143 7.4 17.301 7.147c.018-.028-16.248-9.938-16.151-10.093.17-.271 15.753 6.443 15.753 6.443s-16.808-9.85-16.515-10.319l18.074 6.3c.193-.309-17.05-10.067-16.786-10.489 0 0 16.911 7.286 16.933 7.251.208-.332-17.516-10.385-17.264-10.788 0 0 16.115 7.442 16.328 7.102.199-.319-16.183-10.111-16.183-10.111s17.321 6.48 17.408 6.341l-17.285-10.802s15.855 6.406 16.163 5.915c0 0-16.884-9.737-16.519-10.322 0 0 17.126 6.957 17.167 6.893.187-.3-18.845-11.152-18.564-11.6 0 0 18.115 7.911 18.177 7.812.076-.122-18.388-10.95-18.146-11.338l17.72 6.375s-18.257-10.584-17.887-11.177c.368-.589 18.269 8.303 18.269 8.303s-18.987-11.542-18.842-11.774c.362-.581 17.796 8.323 17.95 8.076l-19.143-11.961 19.81 8.827c.281-.45-20.085-12.551-20.085-12.551.084-.135 18.997 9.395 19.387 8.771l-20.362-12.724c.171-.273 18.628 8.36 18.813 8.063.041-.065-19.913-12.042-19.732-12.331.194-.311 18.946 8.224 19.198 7.821l-21.306-13.313c.246-.394 20.318 8.972 20.416 8.816.243-.39-20.859-13.035-20.859-13.035l20.23 7.502c.422-.674-22.01-13.754-22.01-13.754s19.77 8.933 20.145 8.333c.33-.527-22.895-13.728-22.635-14.144.27-.431 21.946 9.503 21.946 9.503.502-.802-24.65-15.404-24.65-15.404.294-.47 22.971 10.738 22.971 10.738l-25.53-15.954c.153-.247 23.61 11.235 23.956 10.682 0 0-26.933-16.732-26.889-16.802.42-.673 22.906 10.135 23.146 9.752l-26.953-16.842c.262-.419 24.7 13.441 25.209 12.627.033-.053-27.598-17.245-27.598-17.245.171-.274 26.751 12.757 26.751 12.757.469-.749-32.488-19.81-32.268-20.163.309-.494 28.392 14.314 28.769 13.71 0 0-34.827-20.438-34.232-21.391l32.421 17.18c.516-.826-35.891-22.427-35.891-22.427.45-.72 32.338 17.973 32.903 17.068.508-.813-40.904-24.307-40.341-25.208.17-.272 34.272 16.982 34.584 16.483 0 0-48.498-30.215-48.457-30.28l42.742 22.093-131.57-82.214c1.951-3.122 124.377 77.871 126.421 74.601L327.083 47.076s108.827 65.861 109.466 64.838c0 0-100.708-59.981-99.383-62.102 1.656-2.651 90.506 52.383 90.506 52.383l-77.195-48.237c.663-1.062 60.755 33.808 60.755 33.808.526-.843-40.98-24.962-40.69-25.426" fill="none" stroke="#231f20" stroke-width="2" stroke-linecap="round" stroke-linejoin="round" class="stroke-231f20"></path><path d="m153.566 329.422-.933-.583c.007-.012 7.094.226 7.16.12 0 0-6.915-3.994-6.768-4.229l12.308 4.534-12.809-8.003 19.914 8.247-19.157-11.971 27.117 11.766c.074-.119-27.614-17.255-27.614-17.255.358-.573 32.416 17.356 32.646 16.987l-32.953-20.591c.361-.578 37.625 20.483 38.025 19.842 0 0-38.216-23.038-37.837-23.644.715-1.145 44.358 23.901 44.358 23.901s-45.88-26.613-44.957-28.092c.675-1.079 50.284 27.594 50.284 27.594l-50.492-31.551 49.4 27.272-49.873-31.164s50.102 27.063 50.31 26.73l-49.621-31.007c.089-.142 49.09 28.975 50.114 27.335.658-1.054-51.264-31.449-51.001-31.869.473-.757 49.363 28.54 50.215 27.177l-48.995-30.615c.262-.419 48.239 28.556 49.251 26.935.462-.739-49.901-31.183-49.901-31.183.848-1.355 49.778 27.778 49.778 27.778.873-1.397-50.335-31.106-50.18-31.355 0 0 48.903 29.144 49.795 27.716 0 0-50.043-30.993-49.919-31.192l50.332 28.2-49.802-31.12s49.008 27.307 49.095 27.168c0 0-49.694-30.887-49.62-31.006 0 0 50.033 28.205 50.899 26.818 0 0-52.031-30.648-51.193-31.989 0 0 49.593 28.094 49.879 27.635.224-.357-49.865-30.527-49.581-30.981 0 0 50.586 27.026 50.68 26.877l-51.057-31.904c.908-1.453 50.462 26.361 50.462 26.361l-50.844-31.771s49.813 27.519 49.867 27.433l-49.18-30.731c.497-.795 50.622 27.623 50.622 27.623l-51.781-32.356c.151-.242 51.485 27.122 51.485 27.122l-51.255-32.028 49.917 27.639s-50.045-29.341-49.178-30.729c.143-.229 50.559 27.518 50.559 27.518s-50.891-31.677-50.836-31.766c0 0 49.544 28.074 50.477 26.582 0 0-50.661-31.397-50.544-31.583.397-.635 50.81 28.536 50.81 28.536.161-.257-51.337-32.079-51.337-32.079.956-1.531 50.919 26.761 50.919 26.761l-44.807-27.999c.556-.889 44.42 24.896 44.655 24.52.535-.855-40.282-23.532-39.545-24.71 0 0 38.776 19.386 38.813 19.328 0 0-31.977-19.008-31.539-19.708l32.531 16.708s-27.427-16.219-27.014-16.88c.335-.537 25.936 12.748 26.357 12.073.344-.551-20.098-11.648-19.689-12.303.058-.093 19.402 7.611 19.621 7.262 0 0-12.5-7.339-12.288-7.678.143-.229 12.381 4.585 12.381 4.585l-8.238-5.147 7.705-.051s-.359-.215-.354-.222M315.429 333.04s-.991-.573-.971-.606c.099-.157 7.637 1.637 7.637 1.637.029-.047-6.681-4.174-6.681-4.174s12.811 5.051 13.036 4.69c.254-.407-13.12-7.812-12.946-8.09.009-.015 21.031 8.222 21.082 8.14.449-.718-21.176-13.232-21.176-13.232.1-.158 28.632 14.018 28.632 14.018.308-.492-28.435-17.309-28.229-17.64.623-.996 35.521 19.015 35.649 18.811l-36.577-22.856L354.9 334.15c.081-.13-40.664-23.654-39.875-24.917l40.387 20.44-39.867-24.912 41.167 20.985s-42.01-25.508-41.676-26.042c.488-.782 40.27 22.822 40.808 21.96l-40.149-25.088 40.339 20.701s-40.584-23.637-39.81-24.876c.833-1.333 40.125 21.275 40.125 21.275.265-.424-40.702-24.99-40.503-25.31.789-1.263 40.002 21.5 40.124 21.305 0 0-40.567-25.165-40.484-25.298 0 0 40.361 22.403 41.169 21.112 0 0-41.208-24.39-40.597-25.368.245-.392 41.472 22.619 41.472 22.619.705-1.129-42.588-25.279-41.989-26.237 0 0 40.677 22.63 40.87 22.321 0 0-40.459-25.234-40.438-25.268 0 0 41.102 21.24 41.393 20.772.095-.15-41.041-25.645-41.041-25.645.288-.461 40.309 20.808 40.561 20.404.055-.088-41.29-24.276-40.605-25.373 0 0 40.827 22.027 41.052 21.668.031-.051-41.1-25.142-40.856-25.53l40.466 21.756s-41.597-24.757-41.042-25.646c.359-.575 41.587 22.256 41.587 22.256.961-1.538-44.387-27.414-44.242-27.646.071-.114 44.188 22.875 44.188 22.875s-85.673-52.4-85.163-53.216l86.733 50.866-83.214-51.998c1.461-2.338 83.016 46.947 83.016 46.947 1.294-2.071-79.183-48.451-78.72-49.19.667-1.068 78.886 44.149 78.886 44.149.356-.571-74.303-46.429-74.303-46.429l73.985 41.832c.581-.929-69.202-43.243-69.202-43.243l69.166 38.091s-63.563-38.41-62.976-39.351L357.343 246s-57.146-33.566-56.184-35.107c0 0 54.382 30.675 54.709 30.151l-48.539-30.331c.173-.277 48.276 26.446 48.276 26.446.611-.978-42.491-26.552-42.491-26.552.729-1.168 39.049 21.786 39.449 21.146 0 0-32.342-18.9-31.754-19.842 0 0 27.69 14.432 27.982 13.965l-20.543-12.837M266.991 225.229l-24.233-15.143s23.505 10.13 23.616 9.952c.286-.457-16.248-10.153-16.248-10.153l15.745 6.533-9.861-6.162s9.431 1.648 9.597 1.382c.018-.027-2.878-1.632-2.803-1.752" fill="none" stroke="#231f20" stroke-width="2" stroke-linecap="round" stroke-linejoin="round" class="stroke-231f20"></path><path d="m229.573 328.827-.996-.622c.008-.014 7.73.636 7.802.521 0 0-7.454-4.31-7.297-4.56l13.257 5.127-13.676-8.546L250 329.884l-20.473-12.793 29.271 13.112c.08-.128-29.633-18.518-29.633-18.518.386-.617 34.869 18.931 35.118 18.532l-35.337-22.081c.383-.613 39.847 21.928 40.272 21.247 0 0-40.383-24.347-39.984-24.985.651-1.042 40.52 21.504 40.52 21.504s-41.863-24.283-41.02-25.632c.556-.892 41.754 22.263 41.754 22.263l-41.863-26.158 40.852 21.931-41.232-25.765s41.606 21.673 41.778 21.398l-40.967-25.599c.073-.117 40.707 23.334 41.551 21.984.545-.873-42.552-26.106-42.335-26.454.389-.623 40.943 22.944 41.646 21.821L229.602 280.5c.215-.344 39.83 22.896 40.661 21.566.382-.611-41.211-25.752-41.211-25.752.697-1.115 41.164 22.396 41.164 22.396.723-1.157-41.608-25.712-41.479-25.919 0 0 40.439 23.501 41.172 22.328 0 0-41.312-25.584-41.208-25.75l41.696 22.804-41.082-25.671s40.384 21.883 40.455 21.77c0 0-40.951-25.453-40.89-25.552 0 0 41.568 22.578 42.283 21.435 0 0-43.142-25.415-42.448-26.524 0 0 40.979 22.598 41.215 22.221.185-.296-41.06-25.134-40.826-25.51 0 0 41.957 21.597 42.034 21.474l-42.287-26.424c.746-1.194 41.819 20.961 41.819 20.961l-42.065-26.286s41.19 22.109 41.234 22.038l-40.448-25.274c.412-.658 42.191 22.355 42.191 22.355l-43.242-27.021c.127-.204 43.655 22.229 43.655 22.229l-43.293-27.052 42.72 23.141s-42.633-24.984-41.889-26.175c.125-.201 44.515 23.742 44.515 23.742s-44.737-27.847-44.689-27.925c0 0 45.612 25.445 46.467 24.077 0 0-46.515-28.828-46.408-29 .378-.605 48.536 27.115 48.536 27.115.153-.245-48.982-30.607-48.982-30.607.985-1.577 52.404 27.689 52.404 27.689l-53.478-33.417c.71-1.136 56.348 32.495 56.649 32.014.697-1.116-52.49-30.661-51.529-32.199 0 0 56.832 30.708 56.886 30.621 0 0-49.724-29.567-49.048-30.648l55.918 31.321s-27.775-16.424-27.356-17.094c.446-.714 33.443 19.055 34.004 18.158.551-.881-32.53-18.871-31.876-19.918M163.277 193.639l-8.334-5.208c.02-.031 17.294 6.836 17.467 6.56 0 0-21.588-12.557-21.168-13.228l26.409 13.346-27.543-17.211 33.146 16.517-32.153-20.092 36.982 17.931c.097-.155-35.957-22.468-35.957-22.468.423-.677 38.078 20.99 38.351 20.553l-37.211-23.252c.369-.59 38.405 20.991 38.814 20.334 0 0-36.903-22.245-36.537-22.831.63-1.008 39.276 20.727 39.276 20.727s-38.216-22.165-37.445-23.398c.532-.852 39.977 21.153 39.977 21.153L160 159.731l37.638 19.921-35.067-21.913s36.397 18.369 36.546 18.13l-31.125-19.449c.055-.088 31.083 16.86 31.72 15.841.355-.568-27.973-17.164-27.831-17.391.236-.378 25.494 12.677 25.919 11.996l-18.441-11.523c.075-.12 14.548 6.493 14.837 6.031.076-.122-7.744-4.839-7.744-4.839" fill="none" stroke="#231f20" stroke-width="2" stroke-linecap="round" stroke-linejoin="round" class="stroke-231f20"></path><path d="m118.74 375.327-62.958-39.341s38.014 19.36 38.199 19.064c.755-1.209-43.85-27.4-43.85-27.4l34.898 18.5s-37.411-23.375-37.41-23.376c0 0 27.896 14.013 28.434 13.151.136-.218-33.376-19.521-32.777-20.48.01-.016 26.351 11.94 26.351 11.94.203-.325-30.854-18.272-30.401-18.997.366-.585 26.303 12.239 26.439 12.021l-28.89-18.053s23.848 10.808 23.92 10.692l-24.973-15.605c.164-.262 21.737 9.978 22.052 9.473.172-.274-24.809-15.502-24.809-15.502l22.842 9.99-23.922-14.947c.36-.576 20.421 8.131 20.421 8.131l-21.684-13.55c.289-.463 20.438 8.78 20.714 8.338.33-.527-22.325-13.558-22.148-13.84l19.236 8.131-20.576-12.856s19.09 7.284 19.271 6.995c0 0-20.052-11.678-19.669-12.29.285-.456 18.778 9.399 19.151 8.801.357-.571-19.532-12.205-19.532-12.205.211-.339 19.207 8.69 19.207 8.69s-19.343-11.699-19.169-11.979c0 0 17.343 6.881 17.529 6.585.323-.517-18.454-11.532-18.454-11.532l18.52 7.401s-19.266-11.62-19.078-11.921c.317-.508 17.894 7.108 17.962 6.999 0 0-17.45-10.539-17.286-10.801.317-.508 17.634 6.955 17.823 6.652.273-.438-17.681-10.606-17.482-10.924.307-.491 17.104 7.671 17.335 7.301l-17.725-11.076c.055-.088 17.329 7.115 17.575 6.722L26.897 233.65c.156-.25 16.721 6.556 16.721 6.556s-16.794-10.392-16.748-10.465l17.162 7.194s-16.818-10.08-16.625-10.389c0 0 16.421 7.181 16.568 6.946.063-.102-16.523-10.325-16.523-10.325s17.538 7.375 17.741 7.05c.314-.503-17.186-10.605-17.125-10.701.24-.384 17.634 6.222 17.742 6.049.304-.486-15.488-9.587-15.447-9.652l15.365 4.999s-15.444-9.469-15.363-9.6c0 0 15.404 6.199 15.503 6.04l-14.016-8.758s15.592 5.097 15.61 5.068c.22-.353-14.688-9.178-14.688-9.178.167-.268 15.854 5.902 16.026 5.626l-15.746-9.839 16.179 5.605c.28-.449-14.317-8.947-14.317-8.947.121-.194 15.828 5.667 15.828 5.667.124-.198-14.213-8.818-14.185-8.864.216-.346 15.043 5.049 15.073 5.001.252-.403-14.057-8.784-14.057-8.784.06-.096 15.843 5.411 15.843 5.411l-15.065-9.414 15.79 5.516s-14.738-8.732-14.523-9.075c0 0 16.641 7.041 16.791 6.801.03-.049-15.094-9.432-15.094-9.432s15.606 6.246 15.75 6.017c.232-.371-13.223-8.263-13.223-8.263l15.425 5.226c.148-.238-14.753-9.051-14.678-9.171 0 0 15.098 6.65 15.265 6.384.036-.058-13.378-8.36-13.378-8.36l15.07 5.676-14.069-8.792c.238-.38 14.73 5.885 14.73 5.885.239-.382-13.806-8.627-13.806-8.627.171-.273 15.786 4.985 15.786 4.985l-14.094-8.807c.189-.302 15.667 4.775 15.667 4.775l-12.761-7.974 14.957 5.206-12.406-7.752c.277-.443 15.267 5.486 15.521 5.081 0 0-13.398-8.204-13.323-8.325 0 0 14.189 3.893 14.197 3.879.145-.23-13.196-8.119-13.139-8.21l16.069 5.401-13.187-8.24c.168-.269 16.556 5.198 16.556 5.198s-13.512-7.882-13.26-8.286l13.808 4.753s-11.729-6.997-11.58-7.236l14.548 4.059s-12.963-7.682-12.775-7.983l14.788 5.137-12.78-7.986c.307-.492 15.472 6.019 15.472 6.019.173-.276-12.453-7.781-12.453-7.781.208-.332 14.896 5.965 14.899 5.961 0 0-13.044-7.523-12.762-7.975 0 0 13.723 5.946 13.942 5.596l-12.846-8.027s14.603 5.031 14.725 4.835c.219-.35-11.785-7.153-11.689-7.305.118-.188 15.653 5.47 15.653 5.47s-13.315-8.109-13.22-8.261c.185-.296 14.272 5.326 14.322 5.246l-12.757-7.972c.006-.009 16.537 5.917 16.537 5.917.114-.182-13.864-8.664-13.864-8.664s15.717 6.876 15.841 6.678L88.42 114.16c.12-.192 16.397 5.813 16.397 5.813.278-.444-13.012-7.499-12.728-7.953l16.044 6.209c.087-.139-13.12-7.624-12.862-8.037 0 0 13.492 5.753 13.708 5.408 0 0-13.468-7.811-13.196-8.246.199-.318 17.53 6.213 17.53 6.213l-14.343-8.962s15.814 6.729 15.975 6.472c0 0-13.023-7.774-12.86-8.036.246-.394 16.585 6.18 16.585 6.18.297-.476-13.827-8.414-13.725-8.577.062-.099 16.328 5.319 16.328 5.319.103-.165-13.806-8.27-13.646-8.527.133-.212 17.119 6.704 17.119 6.704.119-.191-13.928-8.703-13.928-8.703s17.563 6.996 17.862 6.515c.017-.026-13.518-8.082-13.354-8.345l16.558 5.646c.264-.422-13.098-8.185-13.098-8.185s16.135 5.525 16.189 5.438c.229-.366-13.313-7.922-13.135-8.207 0 0 17.535 6.136 17.674 5.913 0 0-14.562-8.638-14.354-8.97.281-.451 16.529 6.641 16.529 6.641.245-.393-13.25-8.28-13.25-8.28.199-.319 15.971 6.463 15.971 6.463.007-.012-13.052-7.841-12.911-8.067 0 0 15.745 6.517 15.888 6.287l-12.666-7.915 18.171 6.556c.061-.097-15.135-9.279-15.055-9.407.021-.034 17.267 8.06 17.492 7.7 0 0-14.315-8.751-14.228-8.891.241-.386 18.576 7.229 18.729 6.984.189-.303-14.305-8.879-14.278-8.922.083-.133 17.382 6.043 17.382 6.043.279-.446-13.519-8.313-13.458-8.41 0 0 16.032 7.417 16.315 6.965 0 0-13.172-8.127-13.126-8.202.024-.038 18.972 6.933 18.972 6.933l-15.806-9.876s18.292 8.487 18.474 8.196c0 0-15.133-8.742-14.812-9.256.37-.592 18.957 7.261 19.173 6.915.108-.173-15.657-9.471-15.517-9.696 0 0 20.589 8.949 20.919 8.422 0 0-16.185-9.497-15.907-9.94l19.583 7.735-15.922-9.949 19.999 8.176c.164-.262-15.162-9.475-15.162-9.475.212-.34 21.403 8.69 21.403 8.69.27-.431-16.741-10.302-16.669-10.417.295-.472 20.221 9.044 20.221 9.044.148-.237-16.992-10.618-16.992-10.618s22.041 9.51 22.153 9.331L189.9 54.465l20.967 9.677-17.825-11.138 23.331 9.914c.33-.527-17.98-10.493-17.647-11.026l20.673 9.282c.037-.059-16.566-10.352-16.566-10.352s20.579 9.715 20.681 9.553c0 0-17.179-10.265-16.968-10.603l23.058 10.468-19.026-11.889c.413-.66 24.781 10.654 24.781 10.654l-18.919-11.82 22.957 10.732c.372-.595-18.883-11.799-18.883-11.799.252-.404 23.554 11.481 23.577 11.446 0 0-20.062-11.802-19.732-12.33 0 0 23.584 12.312 24.038 11.587.133-.213-19.326-12.076-19.326-12.076.125-.199 26.317 12.152 26.455 11.932.362-.58-20.063-12.537-20.063-12.537s25.949 12.821 26.292 12.271L240.75 43.285c.323-.518 28.33 13.458 28.33 13.458s-22.33-13.92-22.315-13.944c.425-.681 30.035 14.838 30.589 13.952 0 0-24.502-14.306-24.051-15.029.319-.511 31.537 14.952 31.537 14.952s-24.794-14.642-24.411-15.253c.55-.881 30.999 15.726 30.999 15.726.253-.403-25.34-15.834-25.34-15.834.535-.856 31.056 16.249 31.056 16.249.521-.834-26.07-16.29-26.07-16.29.046-.073 34.208 17.871 34.208 17.871s-28.754-16.659-28.166-17.6c0 0 34.633 19.627 35.295 18.568l-30.263-18.91c.592-.947 40.784 22.492 41.45 21.425 0 0-33.562-19.8-33.035-20.643.874-1.398 43.771 24.084 43.925 23.839 0 0-38.5-23.196-38.112-23.815l54.3 29.725-45.191-28.238" fill="none" stroke="#cdd2da" stroke-width="2" stroke-linecap="round" stroke-linejoin="round" class="stroke-262626"></path><path d="m134.19 403.225-27.216-17.007c.068-.108 55.428 31.592 56.017 30.649 0 0-81.44-47.482-79.909-49.934l93.792 55.45-103.08-64.411 118.03 69.557L65.95 348.875l140.698 82.74c.404-.646-149.181-93.219-149.181-93.219 1.79-2.864 156.466 96.927 157.62 95.08l-53.641-33.519c.597-.955 61.198 35.798 61.861 34.737 0 0-43.452-26.199-43.023-26.885.84-1.345 51.838 28.576 51.838 28.576s-39.72-23.038-38.919-24.319c.64-1.023 47.752 26.011 47.752 26.011l-36.398-22.744 42.293 22.831-33.039-20.645s42.317 22.123 42.491 21.845l-30.496-19.057c.066-.106 37.29 21.035 38.059 19.803.386-.617-30.312-18.6-30.158-18.845.34-.545 35.988 19.651 36.602 18.67l-26.534-16.581c.173-.277 32.441 17.922 33.111 16.849.246-.393-26.321-16.447-26.321-16.447.528-.845 31.516 16.367 31.516 16.367.447-.716-25.663-15.857-25.583-15.985 0 0 29.863 16.451 30.397 15.595 0 0-24.556-15.206-24.493-15.306l29.879 15.42-23.659-14.784s27.922 14.045 27.97 13.968c0 0-22.76-14.144-22.725-14.199 0 0 30.601 15.284 31.118 14.457 0 0-23.812-14.035-23.433-14.643 0 0 26.691 13.48 26.842 13.24.098-.158-21.263-13.008-21.138-13.208 0 0 28.576 13.179 28.628 13.097l-21.944-13.712c.486-.777 27.875 12.247 27.875 12.247l-20.864-13.037s24.521 11.651 24.547 11.609L306.642 423.1c.238-.381 25.092 11.671 25.092 11.671l-20.883-13.05c.074-.119 26.512 11.518 26.512 11.518l-19.876-12.42 22.586 10.561s-17.712-10.336-17.383-10.862c.063-.102 23.256 10.457 23.256 10.457s-18.675-11.624-18.654-11.656c0 0 23.303 10.536 23.723 9.864 0 0-17.979-11.14-17.936-11.207.162-.261 21.534 10.241 21.534 10.241.058-.093-18.422-11.512-18.422-11.512.417-.667 23.245 9.47 23.245 9.47l-18.832-11.768c.267-.427 21.967 10.593 22.08 10.413.245-.393-18.608-10.876-18.271-11.416 0 0 22.322 9.067 22.343 9.035 0 0-17.41-10.341-17.168-10.728l21.689 9.933s-17.984-10.637-17.715-11.068c.266-.424 20.79 9.335 21.123 8.802.294-.47-17.064-9.886-16.715-10.445.063-.101 20.996 8.65 21.232 8.271 0 0-16.782-9.863-16.502-10.312.232-.372 19.445 8.998 19.445 8.998l-17.078-10.672 20.744 8.098s-16.273-10.016-16.205-10.125c0 0 19.018 9.68 19.413 9.046.349-.559-16.867-10.54-16.867-10.54s20.498 9.12 20.595 8.965c.117-.188-17.703-10.672-17.528-10.952.299-.479 18.788 9.063 19.121 8.531.283-.453-15.164-9.476-15.164-9.476s18.382 8.263 18.752 7.67l-15.135-9.457s18.813 7.317 18.97 7.067l-16.617-10.384c.225-.359 19.638 8.037 19.707 7.926.182-.289-15.48-9.673-15.48-9.673.234-.375 18.866 6.932 18.874 6.918l-14.884-9.301s17.962 6.93 18.297 6.394c.347-.555-15.282-9.549-15.282-9.549s18.317 7.646 18.584 7.219l-15.333-9.581 18.584 6.592c.188-.3-14.208-8.21-13.908-8.69.244-.39 17.319 6.721 17.57 6.32.018-.028-15.026-9.39-15.026-9.39.03-.049 17.507 7.226 17.552 7.155l-14.862-9.287c.106-.17 17.65 7.595 17.65 7.595l-15.919-9.946c.253-.405 16.944 6.784 17.077 6.571.03-.048-14.112-8.817-14.112-8.817l17.784 7.049c.208-.333-14.854-9.282-14.854-9.282s16.35 7.275 16.557 6.943c.161-.258-15.572-9.731-15.572-9.731.03-.048 18.18 6.625 18.297 6.438.218-.349-14.332-8.911-14.313-8.943 0 0 15.842 6.721 15.91 6.61.179-.285-13.958-8.513-13.864-8.663l16.837 5.652s-14.313-8.825-14.259-8.911c0 0 16.127 6.284 16.192 6.18.028-.046-14.744-9.213-14.744-9.213l17.148 6.878c.074-.118-15.07-9.211-14.979-9.359.329-.526 17.166 7.273 17.166 7.273l-15.777-9.858 17.048 6.04-13.757-8.597c.258-.411 15.557 6.386 15.557 6.386.146-.234-15.09-9.429-15.09-9.429s16.307 7.518 16.612 7.028c0 0-14.428-8.521-14.205-8.877 0 0 16.957 7.757 17.264 7.267.207-.331-15.616-9.759-15.616-9.759.018-.027 17.353 6.519 17.628 6.077 0 0-16.095-9.678-15.924-9.95.29-.465 17.313 6.028 17.417 5.862l-15.055-9.407 17.816 6.091c.245-.393-15.714-9.423-15.536-9.708l16.667 6.457c.306-.488-14.706-9.189-14.706-9.189s15.41 6.191 15.502 6.044c.001-.001-14.604-8.423-14.288-8.928 0 0 17.511 6.498 17.599 6.356 0 0-14.951-9.077-14.832-9.268.278-.445 14.742 5.192 14.855 5.012.287-.46-15.071-9.204-14.976-9.357l16.579 6.517s-15.134-9.438-15.125-9.451c.221-.354 15.829 6.789 16.073 6.398l-14.148-8.841c.038-.062 16.63 5.51 16.736 5.339 0 0-15.118-9.338-15.069-9.416.299-.479 16.553 6.552 16.553 6.552s-15.187-8.965-14.95-9.343l15.21 6.356c.021-.035-15.483-9.571-15.437-9.646.072-.115 15.903 6.794 15.903 6.794s-14.256-8.563-14.101-8.812c.019-.03 15.945 5.476 15.945 5.476s-16.054-9.365-15.755-9.845c.267-.426 17.479 6.734 17.608 6.526.333-.532-16.109-10.066-16.109-10.066.052-.083 16.562 5.67 16.562 5.67.092-.147-15.644-9.775-15.644-9.775s15.989 6.167 16.248 5.754l-14.22-8.885c.104-.167 15.707 6.087 15.707 6.087.063-.099-15.061-9.005-14.878-9.297.067-.108 15.83 6.02 15.83 6.02.084-.136-15.85-9.904-15.85-9.904.051-.082 16.06 4.895 16.06 4.895l-15.308-9.566s16.68 7.186 16.718 7.125c.182-.29-16.848-10.446-16.812-10.504l17.197 6.296s-16.361-10.033-16.275-10.17c.135-.216 16.347 6.416 16.647 5.933.005-.008-15.624-9.546-15.526-9.702.245-.393 15.556 5.606 15.556 5.606l-16.266-10.163s17.143 7.4 17.301 7.147c.018-.028-16.248-9.938-16.151-10.093.17-.271 15.753 6.443 15.753 6.443s-16.808-9.85-16.515-10.319l18.074 6.3c.193-.309-17.05-10.067-16.786-10.489 0 0 16.911 7.286 16.933 7.251.208-.332-17.516-10.385-17.264-10.788 0 0 16.115 7.442 16.328 7.102.199-.319-16.183-10.111-16.183-10.111s17.321 6.48 17.408 6.341l-17.285-10.802s15.855 6.406 16.163 5.915c0 0-16.884-9.737-16.519-10.322 0 0 17.126 6.957 17.167 6.893.187-.3-18.845-11.152-18.564-11.6 0 0 18.115 7.911 18.177 7.812.076-.122-18.388-10.95-18.146-11.338l17.72 6.375s-18.257-10.584-17.887-11.177c.368-.589 18.269 8.303 18.269 8.303s-18.987-11.542-18.842-11.774c.362-.581 17.796 8.323 17.95 8.076l-19.143-11.961 19.81 8.827c.281-.45-20.085-12.551-20.085-12.551.084-.135 18.997 9.395 19.387 8.771l-20.362-12.724c.171-.273 18.628 8.36 18.813 8.063.041-.065-19.913-12.042-19.732-12.331.194-.311 18.946 8.224 19.198 7.821l-21.306-13.313c.246-.394 20.318 8.972 20.416 8.816.243-.39-20.859-13.035-20.859-13.035l20.23 7.502c.422-.674-22.01-13.754-22.01-13.754s19.77 8.933 20.145 8.333c.33-.527-22.895-13.728-22.635-14.144.27-.431 21.946 9.503 21.946 9.503.502-.802-24.65-15.404-24.65-15.404.294-.47 22.971 10.738 22.971 10.738l-25.53-15.954c.153-.247 23.61 11.235 23.956 10.682 0 0-26.933-16.732-26.889-16.802.42-.673 22.906 10.135 23.146 9.752l-26.953-16.842c.262-.419 24.7 13.441 25.209 12.627.033-.053-27.598-17.245-27.598-17.245.171-.274 26.751 12.757 26.751 12.757.469-.749-32.488-19.81-32.268-20.163.309-.494 28.392 14.314 28.769 13.71 0 0-34.827-20.438-34.232-21.391l32.421 17.18c.516-.826-35.891-22.427-35.891-22.427.45-.72 32.338 17.973 32.903 17.068.508-.813-40.904-24.307-40.341-25.208.17-.272 34.272 16.982 34.584 16.483 0 0-48.498-30.215-48.457-30.28l42.742 22.093-131.57-82.214c1.951-3.122 124.377 77.871 126.421 74.601L327.083 47.076s108.827 65.861 109.466 64.838c0 0-100.708-59.981-99.383-62.102 1.656-2.651 90.506 52.383 90.506 52.383l-77.195-48.237c.663-1.062 60.755 33.808 60.755 33.808.526-.843-40.98-24.962-40.69-25.426" fill="none" stroke="#cdd2da" stroke-width="2" stroke-linecap="round" stroke-linejoin="round" class="stroke-262626"></path><path d="m153.566 329.422-.933-.583c.007-.012 7.094.226 7.16.12 0 0-6.915-3.994-6.768-4.229l12.308 4.534-12.809-8.003 19.914 8.247-19.157-11.971 27.117 11.766c.074-.119-27.614-17.255-27.614-17.255.358-.573 32.416 17.356 32.646 16.987l-32.953-20.591c.361-.578 37.625 20.483 38.025 19.842 0 0-38.216-23.038-37.837-23.644.715-1.145 44.358 23.901 44.358 23.901s-45.88-26.613-44.957-28.092c.675-1.079 50.284 27.594 50.284 27.594l-50.492-31.551 49.4 27.272-49.873-31.164s50.102 27.063 50.31 26.73l-49.621-31.007c.089-.142 49.09 28.975 50.114 27.335.658-1.054-51.264-31.449-51.001-31.869.473-.757 49.363 28.54 50.215 27.177l-48.995-30.615c.262-.419 48.239 28.556 49.251 26.935.462-.739-49.901-31.183-49.901-31.183.848-1.355 49.778 27.778 49.778 27.778.873-1.397-50.335-31.106-50.18-31.355 0 0 48.903 29.144 49.795 27.716 0 0-50.043-30.993-49.919-31.192l50.332 28.2-49.802-31.12s49.008 27.307 49.095 27.168c0 0-49.694-30.887-49.62-31.006 0 0 50.033 28.205 50.899 26.818 0 0-52.031-30.648-51.193-31.989 0 0 49.593 28.094 49.879 27.635.224-.357-49.865-30.527-49.581-30.981 0 0 50.586 27.026 50.68 26.877l-51.057-31.904c.908-1.453 50.462 26.361 50.462 26.361l-50.844-31.771s49.813 27.519 49.867 27.433l-49.18-30.731c.497-.795 50.622 27.623 50.622 27.623l-51.781-32.356c.151-.242 51.485 27.122 51.485 27.122l-51.255-32.028 49.917 27.639s-50.045-29.341-49.178-30.729c.143-.229 50.559 27.518 50.559 27.518s-50.891-31.677-50.836-31.766c0 0 49.544 28.074 50.477 26.582 0 0-50.661-31.397-50.544-31.583.397-.635 50.81 28.536 50.81 28.536.161-.257-51.337-32.079-51.337-32.079.956-1.531 50.919 26.761 50.919 26.761l-44.807-27.999c.556-.889 44.42 24.896 44.655 24.52.535-.855-40.282-23.532-39.545-24.71 0 0 38.776 19.386 38.813 19.328 0 0-31.977-19.008-31.539-19.708l32.531 16.708s-27.427-16.219-27.014-16.88c.335-.537 25.936 12.748 26.357 12.073.344-.551-20.098-11.648-19.689-12.303.058-.093 19.402 7.611 19.621 7.262 0 0-12.5-7.339-12.288-7.678.143-.229 12.381 4.585 12.381 4.585l-8.238-5.147 7.705-.051s-.359-.215-.354-.222M315.429 333.04s-.991-.573-.971-.606c.099-.157 7.637 1.637 7.637 1.637.029-.047-6.681-4.174-6.681-4.174s12.811 5.051 13.036 4.69c.254-.407-13.12-7.812-12.946-8.09.009-.015 21.031 8.222 21.082 8.14.449-.718-21.176-13.232-21.176-13.232.1-.158 28.632 14.018 28.632 14.018.308-.492-28.435-17.309-28.229-17.64.623-.996 35.521 19.015 35.649 18.811l-36.577-22.856L354.9 334.15c.081-.13-40.664-23.654-39.875-24.917l40.387 20.44-39.867-24.912 41.167 20.985s-42.01-25.508-41.676-26.042c.488-.782 40.27 22.822 40.808 21.96l-40.149-25.088 40.339 20.701s-40.584-23.637-39.81-24.876c.833-1.333 40.125 21.275 40.125 21.275.265-.424-40.702-24.99-40.503-25.31.789-1.263 40.002 21.5 40.124 21.305 0 0-40.567-25.165-40.484-25.298 0 0 40.361 22.403 41.169 21.112 0 0-41.208-24.39-40.597-25.368.245-.392 41.472 22.619 41.472 22.619.705-1.129-42.588-25.279-41.989-26.237 0 0 40.677 22.63 40.87 22.321 0 0-40.459-25.234-40.438-25.268 0 0 41.102 21.24 41.393 20.772.095-.15-41.041-25.645-41.041-25.645.288-.461 40.309 20.808 40.561 20.404.055-.088-41.29-24.276-40.605-25.373 0 0 40.827 22.027 41.052 21.668.031-.051-41.1-25.142-40.856-25.53l40.466 21.756s-41.597-24.757-41.042-25.646c.359-.575 41.587 22.256 41.587 22.256.961-1.538-44.387-27.414-44.242-27.646.071-.114 44.188 22.875 44.188 22.875s-85.673-52.4-85.163-53.216l86.733 50.866-83.214-51.998c1.461-2.338 83.016 46.947 83.016 46.947 1.294-2.071-79.183-48.451-78.72-49.19.667-1.068 78.886 44.149 78.886 44.149.356-.571-74.303-46.429-74.303-46.429l73.985 41.832c.581-.929-69.202-43.243-69.202-43.243l69.166 38.091s-63.563-38.41-62.976-39.351L357.343 246s-57.146-33.566-56.184-35.107c0 0 54.382 30.675 54.709 30.151l-48.539-30.331c.173-.277 48.276 26.446 48.276 26.446.611-.978-42.491-26.552-42.491-26.552.729-1.168 39.049 21.786 39.449 21.146 0 0-32.342-18.9-31.754-19.842 0 0 27.69 14.432 27.982 13.965l-20.543-12.837M266.991 225.229l-24.233-15.143s23.505 10.13 23.616 9.952c.286-.457-16.248-10.153-16.248-10.153l15.745 6.533-9.861-6.162s9.431 1.648 9.597 1.382c.018-.027-2.878-1.632-2.803-1.752" fill="none" stroke="#cdd2da" stroke-width="2" stroke-linecap="round" stroke-linejoin="round" class="stroke-262626"></path><path d="m229.573 328.827-.996-.622c.008-.014 7.73.636 7.802.521 0 0-7.454-4.31-7.297-4.56l13.257 5.127-13.676-8.546L250 329.884l-20.473-12.793 29.271 13.112c.08-.128-29.633-18.518-29.633-18.518.386-.617 34.869 18.931 35.118 18.532l-35.337-22.081c.383-.613 39.847 21.928 40.272 21.247 0 0-40.383-24.347-39.984-24.985.651-1.042 40.52 21.504 40.52 21.504s-41.863-24.283-41.02-25.632c.556-.892 41.754 22.263 41.754 22.263l-41.863-26.158 40.852 21.931-41.232-25.765s41.606 21.673 41.778 21.398l-40.967-25.599c.073-.117 40.707 23.334 41.551 21.984.545-.873-42.552-26.106-42.335-26.454.389-.623 40.943 22.944 41.646 21.821L229.602 280.5c.215-.344 39.83 22.896 40.661 21.566.382-.611-41.211-25.752-41.211-25.752.697-1.115 41.164 22.396 41.164 22.396.723-1.157-41.608-25.712-41.479-25.919 0 0 40.439 23.501 41.172 22.328 0 0-41.312-25.584-41.208-25.75l41.696 22.804-41.082-25.671s40.384 21.883 40.455 21.77c0 0-40.951-25.453-40.89-25.552 0 0 41.568 22.578 42.283 21.435 0 0-43.142-25.415-42.448-26.524 0 0 40.979 22.598 41.215 22.221.185-.296-41.06-25.134-40.826-25.51 0 0 41.957 21.597 42.034 21.474l-42.287-26.424c.746-1.194 41.819 20.961 41.819 20.961l-42.065-26.286s41.19 22.109 41.234 22.038l-40.448-25.274c.412-.658 42.191 22.355 42.191 22.355l-43.242-27.021c.127-.204 43.655 22.229 43.655 22.229l-43.293-27.052 42.72 23.141s-42.633-24.984-41.889-26.175c.125-.201 44.515 23.742 44.515 23.742s-44.737-27.847-44.689-27.925c0 0 45.612 25.445 46.467 24.077 0 0-46.515-28.828-46.408-29 .378-.605 48.536 27.115 48.536 27.115.153-.245-48.982-30.607-48.982-30.607.985-1.577 52.404 27.689 52.404 27.689l-53.478-33.417c.71-1.136 56.348 32.495 56.649 32.014.697-1.116-52.49-30.661-51.529-32.199 0 0 56.832 30.708 56.886 30.621 0 0-49.724-29.567-49.048-30.648l55.918 31.321s-27.775-16.424-27.356-17.094c.446-.714 33.443 19.055 34.004 18.158.551-.881-32.53-18.871-31.876-19.918M163.277 193.639l-8.334-5.208c.02-.031 17.294 6.836 17.467 6.56 0 0-21.588-12.557-21.168-13.228l26.409 13.346-27.543-17.211 33.146 16.517-32.153-20.092 36.982 17.931c.097-.155-35.957-22.468-35.957-22.468.423-.677 38.078 20.99 38.351 20.553l-37.211-23.252c.369-.59 38.405 20.991 38.814 20.334 0 0-36.903-22.245-36.537-22.831.63-1.008 39.276 20.727 39.276 20.727s-38.216-22.165-37.445-23.398c.532-.852 39.977 21.153 39.977 21.153L160 159.731l37.638 19.921-35.067-21.913s36.397 18.369 36.546 18.13l-31.125-19.449c.055-.088 31.083 16.86 31.72 15.841.355-.568-27.973-17.164-27.831-17.391.236-.378 25.494 12.677 25.919 11.996l-18.441-11.523c.075-.12 14.548 6.493 14.837 6.031.076-.122-7.744-4.839-7.744-4.839" fill="none" stroke="#cdd2da" stroke-width="2" stroke-linecap="round" stroke-linejoin="round" class="stroke-262626"></path></svg>